<mxfile host="app.diagrams.net" modified="2024-03-19T16:49:31.267Z" agent="Mozilla/5.0 (Macintosh; Intel Mac OS X 10_15_7) AppleWebKit/605.1.15 (KHTML, like Gecko) Version/17.3 Safari/605.1.15" version="24.0.7" etag="_696RAEu3wc7mnT6bxe0" type="github">
  <diagram name="Страница — 1" id="gyZKUtjNudj4HrM8nlpz">
    <mxGraphModel>
      <root>
        <mxCell id="0" />
        <mxCell id="1" parent="0" />
      </root>
    </mxGraphModel>
  </diagram>
</mxfile>
